HIERARCHY
ROOT Hips
{
	OFFSET	0.00	0.00	0.00
	CHANNELS 6 Xposition Yposition Zposition Zrotation Xrotation Yrotation
	JOINT LeftUpLeg
	{
		OFFSET	 0.126116	-0.065224	 0.014019
		CHANNELS 3 Zrotation Xrotation Yrotation
		JOINT LeftLeg
		{
			OFFSET	 0.000000	 0.569914	 0.000000
			CHANNELS 3 Zrotation Xrotation Yrotation
			JOINT LeftFoot
			{
				OFFSET	 0.000000	 0.544423	 0.000000
				CHANNELS 3 Zrotation Xrotation Yrotation
				JOINT LeftToeBase
				{
					OFFSET	 0.000000	 0.207117	 0.000000
					CHANNELS 3 Zrotation Xrotation Yrotation
					End Site
					{
						OFFSET	 0.000000	 0.207117	 0.000000
					}
				}
			}
		}
	}
	JOINT RightUpLeg
	{
		OFFSET	-0.124023	-0.065224	 0.008373
		CHANNELS 3 Zrotation Xrotation Yrotation
		JOINT RightLeg
		{
			OFFSET	 0.000000	 0.570047	 0.000000
			CHANNELS 3 Zrotation Xrotation Yrotation
			JOINT RightFoot
			{
				OFFSET	 0.000000	 0.544354	 0.000000
				CHANNELS 3 Zrotation Xrotation Yrotation
				JOINT RightToeBase
				{
					OFFSET	 0.000000	 0.207540	 0.000000
					CHANNELS 3 Zrotation Xrotation Yrotation
					End Site
					{
						OFFSET	 0.000000	 0.207540	 0.000000
					}
				}
			}
		}
	}
	JOINT Spine
	{
		OFFSET	 0.000184	 0.117403	 0.007763
		CHANNELS 3 Zrotation Xrotation Yrotation
		JOINT Spine1
		{
			OFFSET	 0.000000	 0.137269	 0.000000
			CHANNELS 3 Zrotation Xrotation Yrotation
			JOINT Spine2
			{
				OFFSET	 0.000000	 0.156879	 0.000000
				CHANNELS 3 Zrotation Xrotation Yrotation
				JOINT LeftShoulder
				{
					OFFSET	 0.080501	 0.160143	 0.002496
					CHANNELS 3 Zrotation Xrotation Yrotation
					JOINT LeftArm
					{
						OFFSET	 0.000000	 0.164363	 0.000000
						CHANNELS 3 Zrotation Xrotation Yrotation
						JOINT LeftForeArm
						{
							OFFSET	 0.000000	 0.364576	 0.000000
							CHANNELS 3 Zrotation Xrotation Yrotation
							JOINT LeftHand
							{
								OFFSET	 0.000000	 0.360812	 0.000000
								CHANNELS 3 Zrotation Xrotation Yrotation
								JOINT LeftHandIndex1
								{
									OFFSET	 0.000000	 0.086006	 0.000000
									CHANNELS 3 Zrotation Xrotation Yrotation
									JOINT LeftHandIndex2
									{
										OFFSET	 0.000000	 0.047237	 0.000000
										CHANNELS 3 Zrotation Xrotation Yrotation
										JOINT LeftHandIndex3
										{
											OFFSET	-0.004284	 0.038165	 0.000551
											CHANNELS 3 Zrotation Xrotation Yrotation
											End Site
											{
												OFFSET	-0.004284	 0.038165	 0.000551
											}
										}
									}
								}
							}
						}
					}
				}
				JOINT Neck
				{
					OFFSET	 0.000000	 0.176489	 0.000000
					CHANNELS 3 Zrotation Xrotation Yrotation
					JOINT Head
					{
						OFFSET	 0.000000	 0.077941	 0.001747
						CHANNELS 3 Zrotation Xrotation Yrotation
						End Site
						{
							OFFSET	 0.000000	 0.077941	 0.001747
						}
					}
				}
				JOINT RightShoulder
				{
					OFFSET	-0.080363	 0.159706	-0.000306
					CHANNELS 3 Zrotation Xrotation Yrotation
					JOINT RightArm
					{
						OFFSET	 0.000000	 0.164196	 0.000000
						CHANNELS 3 Zrotation Xrotation Yrotation
						JOINT RightForeArm
						{
							OFFSET	 0.000000	 0.365611	 0.000000
							CHANNELS 3 Zrotation Xrotation Yrotation
							JOINT RightHand
							{
								OFFSET	 0.000000	 0.360648	 0.000000
								CHANNELS 3 Zrotation Xrotation Yrotation
								JOINT RightHandIndex1
								{
									OFFSET	 0.000000	 0.069977	 0.000000
									CHANNELS 3 Zrotation Xrotation Yrotation
									JOINT RightHandIndex2
									{
										OFFSET	 0.000000	 0.052305	 0.000000
										CHANNELS 3 Zrotation Xrotation Yrotation
										JOINT RightHandIndex3
										{
											OFFSET	 0.009002	 0.042196	 0.000782
											CHANNELS 3 Zrotation Xrotation Yrotation
											End Site
											{
												OFFSET	 0.009002	 0.042196	 0.000782
											}
										}
									}
								}
							}
						}
					}
				}
			}
		}
	}
}
MOTION
Frames:    11
Frame Time: 0.03333334
 0.436291	 1.274460	 0.407575	 0.682366	-2.585574	-177.227800	 178.803500	 7.017879	-1.489356	 3.518007	-13.006180	 6.045923	 5.709531	 69.818220	-1.811545	 1.292262	 28.425850	-2.713146	 178.690000	 8.166945	 3.160113	-2.175017	-11.169620	 0.739731	 0.893662	 66.779830	-5.707002	-1.288183	 28.361890	 2.710176	-0.975789	 5.086859	-11.469660	 3.381953	-2.044979	-5.778043	-2.102789	 2.120229	 17.110200	-117.710200	-0.856368	 89.924200	 1.279922	 0.020677	-7.532578	 28.376400	-2.214772	 34.586430	-41.042690	 7.787320	-12.358900	-6.580301	 5.266122	 0.000000	 0.000000	 0.000000	 0.000000	 0.000000	 0.000000	 0.000000	 4.970438	 27.665230	 1.567277	-3.673969	-17.508140	 4.629423	 116.683400	-0.549377	-90.531200	-0.847215	 2.503144	 18.183280	-26.742610	 0.615056	-56.562500	-38.222310	-25.398140	-2.420839	 15.208500	 5.323790	 0.000000	 0.000000	 0.000000	 0.000000	 0.000000	 0.000000	 0.000000
 0.436295	 1.275328	 0.410251	 0.729157	-3.115111	-177.173700	 178.812800	 7.774321	-1.401945	 3.553588	-13.132990	 6.182720	 5.950964	 69.557640	-2.087785	 1.292262	 28.425850	-2.713146	 178.694800	 8.797206	 3.185923	-2.156705	-11.077980	 0.556599	 0.432731	 66.427570	-5.230954	-1.288183	 28.361890	 2.710176	-0.942054	 5.040081	-11.130890	 3.261580	-1.709432	-5.636617	-1.920366	 1.570274	 16.599230	-118.272300	-1.027094	 89.846270	 0.034637	 0.867573	-5.959962	 31.332620	-2.423072	 33.253960	-39.817380	 5.688203	-12.835920	-6.580301	 5.266122	 0.000000	 0.000000	 0.000000	 0.000000	 0.000000	 0.000000	 0.000000	 5.372548	 28.894030	 1.230937	-3.691540	-18.308560	 4.604585	 117.570100	-0.792878	-90.443570	 0.514191	 3.618949	 17.386730	-30.579160	 0.695463	-55.519790	-36.954510	-23.779640	-3.112485	 15.208500	 5.323790	 0.000000	 0.000000	 0.000000	 0.000000	 0.000000	 0.000000	 0.000000
 0.436285	 1.275823	 0.414312	 0.776225	-3.781786	-177.104700	 178.791500	 8.850826	-1.282516	 3.654511	-13.492080	 6.367669	 6.258968	 69.357990	-2.463622	 1.292262	 28.425850	-2.713146	 178.704000	 9.757438	 3.211212	-2.191661	-11.252890	 0.318349	-0.083770	 66.157090	-4.660058	-1.288183	 28.361890	 2.710176	-0.915986	 5.158570	-10.651340	 3.044416	-1.479166	-5.428879	-1.690941	 1.428568	 15.889900	-118.986900	-1.242885	 89.744840	-1.275156	 2.410458	-3.542139	 34.964120	-2.669941	 31.694480	-38.587090	 2.764146	-13.510570	-6.580301	 5.266122	 0.000000	 0.000000	 0.000000	 0.000000	 0.000000	 0.000000	 0.000000	 5.903030	 30.453260	 0.782885	-3.724042	-19.235510	 4.558514	 118.697600	-1.100362	-90.326760	 1.821745	 5.559630	 16.360590	-35.245540	 0.788752	-54.386200	-34.816150	-21.717600	-4.564801	 15.208500	 5.323790	 0.000000	 0.000000	 0.000000	 0.000000	 0.000000	 0.000000	 0.000000
 0.436257	 1.275949	 0.420199	 0.832520	-4.628281	-177.016100	 178.737600	 10.339090	-1.121967	 3.835083	-14.131630	 6.614966	 6.647762	 69.202340	-2.957544	 1.292262	 28.425850	-2.713146	 178.722900	 11.126720	 3.236444	-2.285348	-11.720710	 0.012770	-0.677545	 65.941280	-3.967808	-1.288183	 28.361890	 2.710176	-0.889020	 5.447639	-9.988217	 2.708983	-1.166601	-5.135752	-1.388882	 1.592460	 14.922700	-119.901100	-1.516870	 89.611270	-2.071640	 4.729284	-0.065656	 38.422390	-2.895015	 29.835910	-37.070360	-1.571971	-14.565030	-6.580301	 5.266122	 0.000000	 0.000000	 0.000000	 0.000000	 0.000000	 0.000000	 0.000000	 6.615552	 32.441990	 0.173946	-3.774332	-20.355500	 4.487916	 120.140300	-1.490044	-90.168600	 2.487788	 8.458483	 14.959130	-39.866580	 0.876190	-53.217530	-31.893960	-19.634410	-7.067747	 15.208500	 5.323790	 0.000000	 0.000000	 0.000000	 0.000000	 0.000000	 0.000000	 0.000000
 0.436310	 1.275833	 0.427764	 0.892655	-5.663796	-176.908200	 178.655500	 12.176020	-0.921002	 4.053692	-14.901030	 6.916209	 7.108565	 69.007450	-3.539880	 1.292262	 28.425850	-2.713146	 178.736800	 12.842410	 3.261981	-2.407672	-12.328850	-0.351494	-1.353020	 65.696320	-3.168647	-1.288183	 28.361890	 2.710176	-0.886022	 5.933428	-9.111430	 2.321156	-0.772377	-4.738879	-1.047137	 2.118626	 13.666940	-121.022100	-1.849590	 89.441640	-1.364919	 7.539868	 4.063268	 40.227620	-3.008355	 27.667420	-34.694560	-7.337536	-15.626790	-6.580301	 5.266122	 0.000000	 0.000000	 0.000000	 0.000000	 0.000000	 0.000000	 0.000000	 7.546340	 34.869230	-0.632582	-3.845563	-21.669850	 4.387989	 121.909700	-1.961848	-89.961490	 1.631627	 11.799640	 13.252130	-42.879650	 0.930075	-52.157330	-28.561750	-18.068360	-10.311800	 15.208500	 5.323790	 0.000000	 0.000000	 0.000000	 0.000000	 0.000000	 0.000000	 0.000000
 0.436665	 1.275905	 0.435306	 0.930814	-6.793498	-176.793800	 178.561400	 13.997930	-0.707330	 4.195410	-15.396700	 7.215278	 7.580898	 68.645230	-4.095284	 1.292262	 28.425850	-2.713146	 178.711300	 14.562670	 3.290017	-2.482562	-12.699900	-0.717890	-2.053982	 65.303790	-2.371086	-1.288183	 28.361890	 2.710176	-0.849094	 6.539525	-8.106884	 1.859879	-0.587812	-4.277881	-0.682470	 3.093945	 12.242980	-122.232600	-2.204659	 89.251390	 0.941286	 9.730828	 7.472556	 40.099840	-3.000386	 25.443370	-30.993790	-12.716590	-15.706050	-6.580301	 5.266122	 0.000000	 0.000000	 0.000000	 0.000000	 0.000000	 0.000000	 0.000000	 8.630416	 37.472250	-1.585757	-3.932516	-23.038970	 4.265096	 123.820200	-2.463184	-89.721860	-0.663617	 14.055210	 11.774710	-43.804880	 0.946171	-51.381180	-25.530460	-16.890120	-12.640790	 15.208500	 5.323790	 0.000000	 0.000000	 0.000000	 0.000000	 0.000000	 0.000000	 0.000000
 0.437330	 1.275486	 0.447847	 0.929893	-8.934304	-176.572200	 178.193600	 17.414420	-0.442406	 4.437224	-16.236940	 8.281665	 9.588078	 67.967800	-6.436118	 1.292262	 28.425850	-2.713146	 178.515100	 17.889770	 3.663302	-2.640957	-13.481000	-1.668875	-3.870610	 64.698590	-0.311301	-1.288183	 28.361890	 2.710176	-0.686119	 7.125242	-6.721575	 1.400485	-0.796764	-3.610946	-0.330903	 3.996759	 10.139200	-122.935000	-0.245672	 90.250590	 1.626027	 13.664450	 10.113130	 40.748340	-3.040504	 23.598090	-25.944040	-20.550370	-14.805020	-6.580301	 5.266122	 0.000000	 0.000000	 0.000000	 0.000000	 0.000000	 0.000000	 0.000000	 9.237067	 37.746330	-2.322322	-3.942668	-23.874610	 3.736298	 124.958400	-0.844563	-90.598140	-1.661457	 18.219610	 9.495164	-44.486880	 0.957767	-48.964740	-22.441510	-17.633370	-15.102340	 15.208500	 5.323790	 0.000000	 0.000000	 0.000000	 0.000000	 0.000000	 0.000000	 0.000000
 0.439113	 1.274712	 0.463097	 0.903144	-11.727460	-176.291100	 177.648400	 21.716560	-0.102618	 4.654632	-16.986040	 9.616200	 11.886960	 66.908410	-9.127545	 1.292262	 28.425850	-2.713146	 178.184600	 22.133300	 4.247997	-2.792651	-14.224060	-2.709340	-5.727145	 63.763410	 1.779886	-1.288183	 28.361890	 2.710176	-0.459164	 7.724444	-5.048402	 0.955787	-0.350207	-2.770823	-0.012153	 4.504914	 7.547974	-123.506700	 2.917678	 91.902630	 1.570127	 16.561520	 11.439650	 43.484890	-3.205166	 21.944430	-19.085660	-26.671770	-11.820450	-6.580301	 5.266122	 0.000000	 0.000000	 0.000000	 0.000000	 0.000000	 0.000000	 0.000000	 9.606132	 36.921590	-2.954053	-3.910470	-24.509900	 2.978204	 125.845900	 1.859207	-92.096370	-2.098611	 21.579950	 6.942844	-46.302580	 0.988263	-45.858130	-18.688210	-19.098280	-15.308780	 15.208500	 5.323790	 0.000000	 0.000000	 0.000000	 0.000000	 0.000000	 0.000000	 0.000000
 0.443118	 1.266102	 0.488141	 1.250938	-15.902370	-175.150600	 176.534800	 29.618340	 1.487081	 5.868289	-21.049840	 12.163480	 15.966070	 66.729160	-14.260140	 1.292262	 28.425850	-2.713146	 177.920000	 30.111580	 5.525614	-3.754681	-18.813910	-3.785831	-7.363927	 64.404210	 3.773215	-1.288183	 28.361890	 2.710176	-0.001183	 8.267690	-3.133872	 0.587162	 2.722381	-1.782702	 0.562892	 3.462680	 4.308369	-122.996200	 6.568709	 93.761960	 4.706749	 19.417920	 11.927560	 44.754310	-3.279072	 21.658120	-11.050830	-33.718820	-7.103615	-6.580301	 5.266122	 0.000000	 0.000000	 0.000000	 0.000000	 0.000000	 0.000000	 0.000000	 8.779468	 35.957690	-2.918518	-3.603990	-25.860760	 1.892225	 125.654500	 5.494454	-94.060370	-4.474320	 25.941150	 5.190310	-50.111720	 1.048754	-42.883380	-12.547310	-24.673750	-13.558520	 15.208500	 5.323790	 0.000000	 0.000000	 0.000000	 0.000000	 0.000000	 0.000000	 0.000000
 0.451103	 1.254658	 0.525084	 1.956316	-22.601580	-172.807200	 174.461200	 39.956060	 4.926404	 6.586717	-23.353860	 15.402300	 19.668550	 64.537980	-19.340820	 1.292262	 28.425850	-2.713146	 176.410700	 40.842330	 8.398613	-4.584050	-22.577990	-4.700982	-8.466523	 64.017130	 5.042945	-1.288183	 28.361890	 2.710176	 0.533337	 8.840462	-0.659202	 0.974231	 8.003284	-0.498505	 0.902707	 1.184590	-0.050776	-121.651300	 11.676270	 96.213790	 11.147740	 20.778790	 10.613570	 46.266000	-3.364988	 22.279770	 1.458919	-39.996490	 0.478761	-6.580301	 5.266122	 0.000000	 0.000000	 0.000000	 0.000000	 0.000000	 0.000000	 0.000000	 6.880828	 34.608440	-2.436617	-2.961438	-28.140050	 0.371782	 124.770500	 10.901630	-96.859910	-12.313280	 29.485730	 5.863502	-53.589500	 1.099908	-39.353790	-3.746149	-34.680420	-10.234370	 15.208500	 5.323790	 0.000000	 0.000000	 0.000000	 0.000000	 0.000000	 0.000000	 0.000000
 0.455525	 1.246315	 0.546312	 1.503046	-25.733550	-172.808400	 173.091100	 45.431970	 5.396168	 7.107114	-24.972700	 16.861230	 20.674810	 63.693920	-20.902070	 1.292262	 28.425850	-2.713146	 175.559500	 47.048850	 8.363689	-5.208956	-25.283540	-6.311257	-11.256390	 63.492520	 8.225730	-1.288183	 28.361890	 2.710176	 0.730043	 9.538479	 0.993435	 1.302779	 8.866331	 0.408613	 0.793516	 1.359776	-2.519336	-118.990100	 14.328190	 97.108280	 15.306880	 20.798350	 8.131289	 47.175950	-3.415598	 21.974090	 11.462750	-43.314590	 5.629299	-6.580301	 5.266122	 0.000000	 0.000000	 0.000000	 0.000000	 0.000000	 0.000000	 0.000000	 6.436570	 32.890250	-2.660100	-2.939714	-29.502420	-0.540863	 122.936800	 13.834070	-98.083060	-18.503540	 30.686840	 8.778301	-52.884710	 1.089890	-36.751000	 0.371940	-43.831070	-7.095862	 15.208500	 5.323790	 0.000000	 0.000000	 0.000000	 0.000000	 0.000000	 0.000000	 0.000000
